# Blender 3.6.0
# www.blender.org
mtllib some.mtl
o Cylinder
v 0.000000 -1.730478 -1.706725
v 0.000000 1.730478 -1.706725
v 0.332966 -1.730478 -1.673931
v 0.332966 1.730478 -1.673931
v 0.653135 -1.730478 -1.576808
v 0.653135 1.730478 -1.576808
v 0.948206 -1.730478 -1.419090
v 0.948206 1.730478 -1.419090
v 1.206837 -1.730478 -1.206837
v 1.206837 1.730478 -1.206837
v 1.419090 -1.730478 -0.948206
v 1.419090 1.730478 -0.948206
v 1.576808 -1.730478 -0.653135
v 1.576808 1.730478 -0.653135
v 1.673931 -1.730478 -0.332966
v 1.673931 1.730478 -0.332966
v 1.706725 -1.730478 0.000000
v 1.706725 1.730478 -0.000000
v 1.673931 -1.730478 0.332966
v 1.673931 1.730478 0.332966
v 1.576808 -1.730478 0.653135
v 1.576808 1.730478 0.653135
v 1.419090 -1.730478 0.948206
v 1.419090 1.730478 0.948206
v 1.206837 -1.730478 1.206837
v 1.206837 1.730478 1.206837
v 0.948206 -1.730478 1.419090
v 0.948206 1.730478 1.419090
v 0.653135 -1.730478 1.576808
v 0.653135 1.730478 1.576808
v 0.332966 -1.730478 1.673931
v 0.332966 1.730478 1.673931
v 0.000000 -1.730478 1.706725
v 0.000000 1.730478 1.706725
v -0.332966 -1.730478 1.673931
v -0.332966 1.730478 1.673931
v -0.653135 -1.730478 1.576808
v -0.653135 1.730478 1.576808
v -0.948206 -1.730478 1.419090
v -0.948206 1.730478 1.419090
v -1.206837 -1.730478 1.206837
v -1.206837 1.730478 1.206837
v -1.419090 -1.730478 0.948206
v -1.419090 1.730478 0.948206
v -1.576808 -1.730478 0.653135
v -1.576808 1.730478 0.653135
v -1.673931 -1.730478 0.332966
v -1.673931 1.730478 0.332966
v -1.706725 -1.730478 0.000000
v -1.706725 1.730478 -0.000000
v -1.673931 -1.730478 -0.332966
v -1.673931 1.730478 -0.332966
v -1.576808 -1.730478 -0.653135
v -1.576808 1.730478 -0.653135
v -1.419090 -1.730478 -0.948206
v -1.419090 1.730478 -0.948206
v -1.206837 -1.730478 -1.206837
v -1.206837 1.730478 -1.206837
v -0.948206 -1.730478 -1.419090
v -0.948206 1.730478 -1.419090
v -0.653135 -1.730478 -1.576808
v -0.653135 1.730478 -1.576808
v -0.332966 -1.730478 -1.673931
v -0.332966 1.730478 -1.673931
v 0.000000 -0.000000 -2.477453
v 0.483327 -0.000000 -2.429849
v 0.948080 -0.000000 -2.288867
v 1.376399 -0.000000 -2.059926
v 1.751824 -0.000000 -1.751823
v 2.059927 -0.000000 -1.376399
v 2.288868 -0.000000 -0.948080
v 2.429849 -0.000000 -0.483327
v 2.477453 0.000000 0.000000
v 2.429849 0.000000 0.483327
v 2.288868 0.000000 0.948080
v 2.059927 0.000000 1.376399
v 1.751824 0.000000 1.751823
v 1.376399 0.000000 2.059926
v 0.948080 0.000000 2.288867
v 0.483327 0.000000 2.429849
v 0.000000 0.000000 2.477453
v -0.483327 0.000000 2.429849
v -0.948080 0.000000 2.288867
v -1.376399 0.000000 2.059926
v -1.751823 0.000000 1.751823
v -2.059926 0.000000 1.376399
v -2.288867 0.000000 0.948080
v -2.429849 0.000000 0.483327
v -2.477452 0.000000 0.000000
v -2.429849 -0.000000 -0.483327
v -2.288867 -0.000000 -0.948080
v -2.059926 -0.000000 -1.376399
v -1.751823 -0.000000 -1.751823
v -1.376399 -0.000000 -2.059926
v -0.948080 -0.000000 -2.288867
v -0.483327 -0.000000 -2.429849
vn 0.0896 0.4052 -0.9098
vn 0.2654 0.4052 -0.8749
vn 0.4310 0.4052 -0.8063
vn 0.5800 0.4052 -0.7067
vn 0.7067 0.4052 -0.5800
vn 0.8063 0.4052 -0.4310
vn 0.8749 0.4052 -0.2654
vn 0.9098 0.4052 -0.0896
vn 0.9098 0.4052 0.0896
vn 0.8749 0.4052 0.2654
vn 0.8063 0.4052 0.4310
vn 0.7067 0.4052 0.5800
vn 0.5800 0.4052 0.7067
vn 0.4310 0.4052 0.8063
vn 0.2654 0.4052 0.8749
vn 0.0896 0.4052 0.9098
vn -0.0896 0.4052 0.9098
vn -0.2654 0.4052 0.8749
vn -0.4310 0.4052 0.8063
vn -0.5800 0.4052 0.7067
vn -0.7067 0.4052 0.5800
vn -0.8063 0.4052 0.4310
vn -0.8749 0.4052 0.2654
vn -0.9098 0.4052 0.0896
vn -0.9098 0.4052 -0.0896
vn -0.8749 0.4052 -0.2654
vn -0.8063 0.4052 -0.4310
vn -0.7067 0.4052 -0.5800
vn -0.5800 0.4052 -0.7067
vn -0.4310 0.4052 -0.8063
vn -0.0000 1.0000 -0.0000
vn -0.2654 0.4052 -0.8749
vn -0.0896 0.4052 -0.9098
vn -0.0000 -1.0000 -0.0000
vn -0.0896 -0.4052 -0.9098
vn -0.2654 -0.4052 -0.8749
vn -0.4310 -0.4052 -0.8063
vn -0.5800 -0.4052 -0.7067
vn -0.7067 -0.4052 -0.5800
vn -0.8063 -0.4052 -0.4310
vn -0.8749 -0.4052 -0.2654
vn -0.9098 -0.4052 -0.0896
vn -0.9098 -0.4052 0.0896
vn -0.8749 -0.4052 0.2654
vn -0.8063 -0.4052 0.4310
vn -0.7067 -0.4052 0.5800
vn -0.5800 -0.4052 0.7067
vn -0.4310 -0.4052 0.8063
vn -0.2654 -0.4052 0.8749
vn -0.0896 -0.4052 0.9098
vn 0.0896 -0.4052 0.9098
vn 0.2654 -0.4052 0.8749
vn 0.4310 -0.4052 0.8063
vn 0.5800 -0.4052 0.7067
vn 0.7067 -0.4052 0.5800
vn 0.8063 -0.4052 0.4310
vn 0.8749 -0.4052 0.2654
vn 0.9098 -0.4052 0.0896
vn 0.9098 -0.4052 -0.0896
vn 0.8749 -0.4052 -0.2654
vn 0.8063 -0.4052 -0.4310
vn 0.7067 -0.4052 -0.5800
vn 0.5800 -0.4052 -0.7067
vn 0.4310 -0.4052 -0.8063
vn 0.2654 -0.4052 -0.8749
vn 0.0896 -0.4052 -0.9098
vt 1.000000 1.000000
vt 0.968750 0.750000
vt 1.000000 0.750000
vt 0.968750 1.000000
vt 0.937500 0.750000
vt 0.937500 1.000000
vt 0.906250 0.750000
vt 0.875000 1.000000
vt 0.875000 0.750000
vt 0.843750 1.000000
vt 0.843750 0.750000
vt 0.812500 0.750000
vt 0.781250 1.000000
vt 0.781250 0.750000
vt 0.750000 1.000000
vt 0.750000 0.750000
vt 0.718750 0.750000
vt 0.718750 1.000000
vt 0.687500 0.750000
vt 0.687500 1.000000
vt 0.656250 0.750000
vt 0.656250 1.000000
vt 0.625000 0.750000
vt 0.625000 1.000000
vt 0.593750 0.750000
vt 0.593750 1.000000
vt 0.562500 0.750000
vt 0.562500 1.000000
vt 0.531250 0.750000
vt 0.531250 1.000000
vt 0.500000 0.750000
vt 0.500000 1.000000
vt 0.468750 0.750000
vt 0.468750 1.000000
vt 0.437500 0.750000
vt 0.437500 1.000000
vt 0.406250 0.750000
vt 0.406250 1.000000
vt 0.375000 0.750000
vt 0.343750 1.000000
vt 0.343750 0.750000
vt 0.312500 0.750000
vt 0.312500 1.000000
vt 0.281250 0.750000
vt 0.281250 1.000000
vt 0.250000 0.750000
vt 0.218750 1.000000
vt 0.218750 0.750000
vt 0.187500 0.750000
vt 0.156250 1.000000
vt 0.156250 0.750000
vt 0.125000 1.000000
vt 0.125000 0.750000
vt 0.093750 0.750000
vt 0.093750 1.000000
vt 0.062500 0.750000
vt 0.158156 0.028269
vt 0.471731 0.158156
vt 0.341844 0.471731
vt 0.062500 1.000000
vt 0.031250 0.750000
vt 0.031250 1.000000
vt 0.000000 0.750000
vt 0.796822 0.014612
vt 0.514612 0.203178
vt 0.703178 0.485388
vt 0.000000 0.500000
vt 0.031250 0.500000
vt 0.062500 0.500000
vt 0.093750 0.500000
vt 0.125000 0.500000
vt 0.156250 0.500000
vt 0.187500 0.500000
vt 0.218750 0.500000
vt 0.250000 0.500000
vt 0.281250 0.500000
vt 0.312500 0.500000
vt 0.343750 0.500000
vt 0.375000 0.500000
vt 0.406250 0.500000
vt 0.437500 0.500000
vt 0.468750 0.500000
vt 0.500000 0.500000
vt 0.531250 0.500000
vt 0.562500 0.500000
vt 0.593750 0.500000
vt 0.625000 0.500000
vt 0.656250 0.500000
vt 0.687500 0.500000
vt 0.718750 0.500000
vt 0.750000 0.500000
vt 0.781250 0.500000
vt 0.812500 0.500000
vt 0.843750 0.500000
vt 0.875000 0.500000
vt 0.906250 0.500000
vt 0.937500 0.500000
vt 0.968750 0.500000
vt 1.000000 0.500000
vt 0.906250 1.000000
vt 0.812500 1.000000
vt 0.375000 1.000000
vt 0.250000 1.000000
vt 0.187500 1.000000
vt 0.296822 0.485388
vt 0.250000 0.490000
vt 0.203178 0.485388
vt 0.158156 0.471731
vt 0.116663 0.449553
vt 0.080294 0.419706
vt 0.050447 0.383337
vt 0.028269 0.341844
vt 0.014612 0.296822
vt 0.010000 0.250000
vt 0.014612 0.203178
vt 0.028269 0.158156
vt 0.050447 0.116663
vt 0.080294 0.080294
vt 0.116663 0.050447
vt 0.203178 0.014612
vt 0.250000 0.010000
vt 0.296822 0.014612
vt 0.341844 0.028269
vt 0.383337 0.050447
vt 0.419706 0.080294
vt 0.449553 0.116663
vt 0.485388 0.203178
vt 0.490000 0.250000
vt 0.485388 0.296822
vt 0.471731 0.341844
vt 0.449553 0.383337
vt 0.419706 0.419706
vt 0.383337 0.449553
vt 0.000000 1.000000
vt 0.750000 0.490000
vt 0.796822 0.485388
vt 0.841844 0.471731
vt 0.883337 0.449553
vt 0.919706 0.419706
vt 0.949553 0.383337
vt 0.971731 0.341844
vt 0.985388 0.296822
vt 0.990000 0.250000
vt 0.985388 0.203178
vt 0.971731 0.158156
vt 0.949553 0.116663
vt 0.919706 0.080294
vt 0.883337 0.050447
vt 0.841844 0.028269
vt 0.750000 0.010000
vt 0.703178 0.014612
vt 0.658156 0.028269
vt 0.616663 0.050447
vt 0.580294 0.080294
vt 0.550447 0.116663
vt 0.528269 0.158156
vt 0.510000 0.250000
vt 0.514612 0.296822
vt 0.528269 0.341844
vt 0.550447 0.383337
vt 0.580294 0.419706
vt 0.616663 0.449553
vt 0.658156 0.471731
s 0
f 2/1/1 66/2/1 65/3/1
f 4/4/2 67/5/2 66/2/2
f 6/6/3 68/7/3 67/5/3
f 68/7/4 10/8/4 69/9/4
f 69/9/5 12/10/5 70/11/5
f 12/10/6 71/12/6 70/11/6
f 71/12/7 16/13/7 72/14/7
f 72/14/8 18/15/8 73/16/8
f 18/15/9 74/17/9 73/16/9
f 20/18/10 75/19/10 74/17/10
f 22/20/11 76/21/11 75/19/11
f 24/22/12 77/23/12 76/21/12
f 26/24/13 78/25/13 77/23/13
f 28/26/14 79/27/14 78/25/14
f 30/28/15 80/29/15 79/27/15
f 32/30/16 81/31/16 80/29/16
f 34/32/17 82/33/17 81/31/17
f 36/34/18 83/35/18 82/33/18
f 38/36/19 84/37/19 83/35/19
f 40/38/20 85/39/20 84/37/20
f 85/39/21 44/40/21 86/41/21
f 44/40/22 87/42/22 86/41/22
f 46/43/23 88/44/23 87/42/23
f 48/45/24 89/46/24 88/44/24
f 89/46/25 52/47/25 90/48/25
f 52/47/26 91/49/26 90/48/26
f 91/49/27 56/50/27 92/51/27
f 92/51/28 58/52/28 93/53/28
f 58/52/29 94/54/29 93/53/29
f 60/55/30 95/56/30 94/54/30
f 38/57/31 22/58/31 6/59/31
f 62/60/32 96/61/32 95/56/32
f 64/62/33 65/63/33 96/61/33
f 31/64/34 47/65/34 63/66/34
f 96/61/35 1/67/35 63/68/35
f 95/56/36 63/68/36 61/69/36
f 59/70/37 95/56/37 61/69/37
f 93/53/38 59/70/38 57/71/38
f 92/51/39 57/71/39 55/72/39
f 91/49/40 55/72/40 53/73/40
f 51/74/41 91/49/41 53/73/41
f 89/46/42 51/74/42 49/75/42
f 47/76/43 89/46/43 49/75/43
f 87/42/44 47/76/44 45/77/44
f 43/78/45 87/42/45 45/77/45
f 85/39/46 43/78/46 41/79/46
f 84/37/47 41/79/47 39/80/47
f 83/35/48 39/80/48 37/81/48
f 35/82/49 83/35/49 37/81/49
f 33/83/50 82/33/50 35/82/50
f 80/29/51 33/83/51 31/84/51
f 79/27/52 31/84/52 29/85/52
f 27/86/53 79/27/53 29/85/53
f 25/87/54 78/25/54 27/86/54
f 23/88/55 77/23/55 25/87/55
f 75/19/56 23/88/56 21/89/56
f 74/17/57 21/89/57 19/90/57
f 73/16/58 19/90/58 17/91/58
f 72/14/59 17/91/59 15/92/59
f 71/12/60 15/92/60 13/93/60
f 70/11/61 13/93/61 11/94/61
f 69/9/62 11/94/62 9/95/62
f 68/7/63 9/95/63 7/96/63
f 67/5/64 7/96/64 5/97/64
f 3/98/65 67/5/65 5/97/65
f 1/99/66 66/2/66 3/98/66
f 2/1/1 4/4/1 66/2/1
f 4/4/2 6/6/2 67/5/2
f 6/6/3 8/100/3 68/7/3
f 68/7/4 8/100/4 10/8/4
f 69/9/5 10/8/5 12/10/5
f 12/10/6 14/101/6 71/12/6
f 71/12/7 14/101/7 16/13/7
f 72/14/8 16/13/8 18/15/8
f 18/15/9 20/18/9 74/17/9
f 20/18/10 22/20/10 75/19/10
f 22/20/11 24/22/11 76/21/11
f 24/22/12 26/24/12 77/23/12
f 26/24/13 28/26/13 78/25/13
f 28/26/14 30/28/14 79/27/14
f 30/28/15 32/30/15 80/29/15
f 32/30/16 34/32/16 81/31/16
f 34/32/17 36/34/17 82/33/17
f 36/34/18 38/36/18 83/35/18
f 38/36/19 40/38/19 84/37/19
f 40/38/20 42/102/20 85/39/20
f 85/39/21 42/102/21 44/40/21
f 44/40/22 46/43/22 87/42/22
f 46/43/23 48/45/23 88/44/23
f 48/45/24 50/103/24 89/46/24
f 89/46/25 50/103/25 52/47/25
f 52/47/26 54/104/26 91/49/26
f 91/49/27 54/104/27 56/50/27
f 92/51/28 56/50/28 58/52/28
f 58/52/29 60/55/29 94/54/29
f 60/55/30 62/60/30 95/56/30
f 6/59/31 4/105/31 2/106/31
f 2/106/31 64/107/31 62/108/31
f 62/108/31 60/109/31 58/110/31
f 58/110/31 56/111/31 54/112/31
f 54/112/31 52/113/31 50/114/31
f 50/114/31 48/115/31 46/116/31
f 46/116/31 44/117/31 42/118/31
f 42/118/31 40/119/31 38/57/31
f 38/57/31 36/120/31 34/121/31
f 34/121/31 32/122/31 30/123/31
f 30/123/31 28/124/31 26/125/31
f 26/125/31 24/126/31 22/58/31
f 22/58/31 20/127/31 18/128/31
f 18/128/31 16/129/31 14/130/31
f 14/130/31 12/131/31 10/132/31
f 10/132/31 8/133/31 6/59/31
f 6/59/31 2/106/31 62/108/31
f 62/108/31 58/110/31 54/112/31
f 54/112/31 50/114/31 46/116/31
f 46/116/31 42/118/31 38/57/31
f 38/57/31 34/121/31 30/123/31
f 30/123/31 26/125/31 22/58/31
f 22/58/31 18/128/31 14/130/31
f 14/130/31 10/132/31 6/59/31
f 6/59/31 62/108/31 54/112/31
f 54/112/31 46/116/31 38/57/31
f 38/57/31 30/123/31 22/58/31
f 22/58/31 14/130/31 6/59/31
f 6/59/31 54/112/31 38/57/31
f 62/60/32 64/62/32 96/61/32
f 64/62/33 2/134/33 65/63/33
f 63/66/34 1/135/34 3/136/34
f 3/136/34 5/137/34 7/138/34
f 7/138/34 9/139/34 11/140/34
f 11/140/34 13/141/34 15/142/34
f 15/142/34 17/143/34 19/144/34
f 19/144/34 21/145/34 23/146/34
f 23/146/34 25/147/34 27/148/34
f 27/148/34 29/149/34 31/64/34
f 31/64/34 33/150/34 35/151/34
f 35/151/34 37/152/34 39/153/34
f 39/153/34 41/154/34 43/155/34
f 43/155/34 45/156/34 47/65/34
f 47/65/34 49/157/34 51/158/34
f 51/158/34 53/159/34 55/160/34
f 55/160/34 57/161/34 59/162/34
f 59/162/34 61/163/34 63/66/34
f 63/66/34 3/136/34 7/138/34
f 7/138/34 11/140/34 15/142/34
f 15/142/34 19/144/34 23/146/34
f 23/146/34 27/148/34 31/64/34
f 31/64/34 35/151/34 39/153/34
f 39/153/34 43/155/34 47/65/34
f 47/65/34 51/158/34 55/160/34
f 55/160/34 59/162/34 63/66/34
f 63/66/34 7/138/34 15/142/34
f 15/142/34 23/146/34 31/64/34
f 31/64/34 39/153/34 47/65/34
f 47/65/34 55/160/34 63/66/34
f 63/66/34 15/142/34 31/64/34
f 96/61/35 65/63/35 1/67/35
f 95/56/36 96/61/36 63/68/36
f 59/70/37 94/54/37 95/56/37
f 93/53/38 94/54/38 59/70/38
f 92/51/39 93/53/39 57/71/39
f 91/49/40 92/51/40 55/72/40
f 51/74/41 90/48/41 91/49/41
f 89/46/42 90/48/42 51/74/42
f 47/76/43 88/44/43 89/46/43
f 87/42/44 88/44/44 47/76/44
f 43/78/45 86/41/45 87/42/45
f 85/39/46 86/41/46 43/78/46
f 84/37/47 85/39/47 41/79/47
f 83/35/48 84/37/48 39/80/48
f 35/82/49 82/33/49 83/35/49
f 33/83/50 81/31/50 82/33/50
f 80/29/51 81/31/51 33/83/51
f 79/27/52 80/29/52 31/84/52
f 27/86/53 78/25/53 79/27/53
f 25/87/54 77/23/54 78/25/54
f 23/88/55 76/21/55 77/23/55
f 75/19/56 76/21/56 23/88/56
f 74/17/57 75/19/57 21/89/57
f 73/16/58 74/17/58 19/90/58
f 72/14/59 73/16/59 17/91/59
f 71/12/60 72/14/60 15/92/60
f 70/11/61 71/12/61 13/93/61
f 69/9/62 70/11/62 11/94/62
f 68/7/63 69/9/63 9/95/63
f 67/5/64 68/7/64 7/96/64
f 3/98/65 66/2/65 67/5/65
f 1/99/66 65/3/66 66/2/66
